<?xml version="1.0" encoding="utf-8"?>
<!-- Generator: Adobe Illustrator 26.2.1, SVG Export Plug-In . SVG Version: 6.00 Build 0)  -->
<svg version="1.1" id="Layer_1" xmlns="http://www.w3.org/2000/svg" xmlns:xlink="http://www.w3.org/1999/xlink" x="0px" y="0px"
	 viewBox="0 0 1000 1333.333" style="enable-background:new 0 0 1000 1333.333;" xml:space="preserve">
<style type="text/css">
	.st0{fill:none;stroke:#FFFFFF;stroke-miterlimit:10;}
	.st1{fill:none;stroke:#5BBBC4;stroke-miterlimit:10;}
	.st2{fill:none;stroke:#4789C6;stroke-miterlimit:10;}
	.st3{fill:none;stroke:#2BB6DE;stroke-miterlimit:10;}
	.st4{fill:#FFFFFF;}
</style>
<path id="detail1_00000121969962210813206780000010236587966478122668_" class="st0" d="M502.509,238.838
	c2.181,0,10.904-17.703,15.907-22.835s13.598-7.825,21.68-8.339s7.441,0.257,13.983-3.335c6.543-3.592,21.005-5.719,21.005-5.719
	c-9.568,0.574-24.876,3.253-28.129,4.784s-3.444-1.339-8.42-0.957c-4.975,0.383-7.654,2.679-18.179,5.932
	c-10.525,3.253-19.518-1.148-29.278,0c-9.759,1.148-13.012,4.593-17.031,11.673s-5.964,49.904-8.408,20.587
	c-2.443-29.316-20.155-37.256-20.155-37.256c-6.108,2.443-10.688,3.054-18.054,4.886s-7.292-13.437-16.148-7.94
	c-8.856,5.497-22.292-3.359-22.292-3.359s4.275,2.138,11.299,14.353s31.148,15.574,26.568,22.292"/>
<path id="top" class="st0" d="M293.102,287.963c0,0,19.544-10.994,55.273-20.46c35.729-9.467,73.901-27.179,78.482-33.897
	c0,0,12.26,17.678,40.812,17.066s34.84-11.834,34.84-11.834s7.056,4.362,17.062,10.391c10.006,6.029,35.404,20.201,45.793,23.067
	c10.389,2.866,18.092,5.911,25.794,8.777c7.703,2.866,22.391,3.045,27.228,7.882c4.836,4.836,16.144,4.619,19.809,10.352
	c3.665,5.732,11.559,19.828,11.559,19.828"/>
<path id="left" class="st0" d="M149.486,1194.332c30.791-79.305,66.063-209.862,82.786-271.877s93.37-312.858,106.609-375.57
	s17.42-97.551,11.845-142.145s-57.624-116.778-57.624-116.778"/>
<path id="bottom" class="st0" d="M819.442,1165.637c-9.045,10.293-31.19,12.476-40.235,12.476s-14.659,8.421-12.476,13.723
	s-5.302,13.412-14.659,10.293c-9.357-3.119-18.402,1.871-22.145,6.55c-3.743,4.678-5.926,6.862-17.466-7.174s-35.244-9.357-51.463,0
	c-16.219,9.357-41.482,23.08-49.592,26.199c-8.109,3.119-19.338-4.055-27.135-2.183c-7.797,1.871-11.852,12.476-15.595,9.669
	c-3.743-2.807,10.293-9.981-3.119-19.65c-13.412-9.669-22.145-1.559-54.582,5.926c-32.437,7.486-34.309-5.614-48.344-12.164
	c-14.035-6.55-28.383-1.871-37.74,3.119c-9.357,4.99-12.164,15.595-28.383,21.209c-16.219,5.614-56.765-8.421-72.672-21.521
	c-15.907-13.1-24.952-9.357-33.373-4.366c-18.714-10.293-38.987-9.357-53.958-9.045c-14.971,0.312-31.814,10.916-48.656,17.466
	c-16.842,6.55-38.363-21.833-38.363-21.833"/>
<path id="right" class="st0" d="M649.753,319.134c0,0-50.899,54.735-57.949,102.805c-7.05,48.07,5.127,80.117,17.946,124.341
	s160.379,496.59,170.641,524.19c10.261,27.6,16.213,60.138,18.881,67.603c2.668,7.464,20.171,27.565,20.171,27.565"/>
<path class="st0" d="M353.132,427.621c0,0,188.53,1.345,236.6,0"/>
<line class="st0" x1="589.732" y1="427.621" x2="861.998" y2="427.621"/>
<line class="st0" x1="388.99" y1="1217.122" x2="1048.551" y2="1217.122"/>
<line class="st0" x1="335.292" y1="358.74" x2="902.839" y2="358.74"/>
<line class="st0" x1="494.732" y1="1217.122" x2="494.732" y2="427.621"/>
<line class="st0" x1="482.037" y1="358.74" x2="482.037" y2="307.69"/>
<line class="st0" x1="494.732" y1="1217.122" x2="494.732" y2="358.74"/>
</svg>
