<?xml version="1.0" encoding="utf-8"?>
<!-- Generator: Adobe Illustrator 26.2.1, SVG Export Plug-In . SVG Version: 6.00 Build 0)  -->
<svg version="1.1" id="Layer_1" xmlns="http://www.w3.org/2000/svg" xmlns:xlink="http://www.w3.org/1999/xlink" x="0px" y="0px"
	 viewBox="0 0 670.956 401.907" style="enable-background:new 0 0 670.956 401.907;" xml:space="preserve">
<style type="text/css">
	.st0{fill:none;stroke:#FFFFFF;stroke-miterlimit:10;}
	.st1{fill:none;stroke:#5BBBC4;stroke-miterlimit:10;}
	.st2{fill:none;stroke:#4789C6;stroke-miterlimit:10;}
	.st3{fill:none;stroke:#2BB6DE;stroke-miterlimit:10;}
	.st4{fill:#FFFFFF;}
</style>
<g id="splines">
	<path id="Z0" class="st0" d="M670.456,200.954c0,16.255-24.145,27.573-30.248,42.706c-7.803,19.35,0.616,42.09-15.809,58.795
		c-13.807,14.043-51.812-0.258-70.723,11.325c-15.206,9.313-10.496,44.993-28.475,52.4c-29.831,12.289-67.816-3.956-103.56,2.055
		c-28.884,4.858-54.686,33.172-86.164,33.172c-24.49,0-51.967-30.187-74.963-33.172c-35.029-4.548-64.415,16.239-94.415,5.696
		c-23.072-8.108-24.475-37.9-43.587-48.962c-17.769-10.285-53.543-1.657-67.174-14.069c-7.689-7.001-4.205-29.081-10.406-36.657
		c-6.201-7.576-22.087-0.647-26.676-8.723c-5.756-10.13,2.821-34.201-0.179-44.986S0.5,212.249,0.5,200.954
		c0-18.576,16.39-28.992,24.292-46.063c5.316-11.485,0.13-30.125,8.612-40.683c11.793-14.678,55.574-14.662,72.722-27.09
		c23.04-16.699,21.423-44.831,52.251-56.343c24.786-9.256,65.985,6.134,94.548,0.984C283.57,26.232,301.822,0.5,335.478,0.5
		c23.125,0,43.814,26.172,65.62,28.842c24.203,2.964,49.344-17.28,71.339-11.376c26.154,7.021,36.78,29.341,58.861,39.95
		c16.758,8.052,45.945,3.698,59.834,13.504c18.556,13.101,20.917,61.833,33.411,77.503
		C645.366,175.039,670.456,170.089,670.456,200.954z"/>
	<path id="Z790" class="st0" d="M453.971,205.879c1.151,31.426-59.279,77.674-118.3,77.674s-115.986-46.483-118.3-77.674
		s4.683-54.435,38.949-73.974c34.266-19.539,42.66-11.364,79.351-11.364s34.428-8.871,71.136,9.114S452.819,174.453,453.971,205.879
		z"/>
	<path id="Z850" class="st0" d="M446.953,205.723c-0.878,5.708-1.919,11.222-2.916,16.367
		c-4.824,24.882-24.882,60.173-52.048,63.504s-43.924-8.155-57.634-10.694c-13.71-2.539-22.089,9.902-49.509,10.664
		c-27.42,0.762-42.908-12.695-53.064-34.53s-10.324-53.492-9.763-84.609s22.457-42.591,42.009-47.661s38.772-2.293,66.265-2.293
		c69.313,0,91.402,2.539,107.905,24.882C451.288,159.075,450.32,183.827,446.953,205.723"/>
	<path id="Z880" class="st0" d="M456.632,205.746c-4.29,61.246-24.748,93.589-62.011,93.589c-42.22,0-38.436-19.165-59.906-19.467
		c-21.47-0.302-19.648,20.573-62.809,20.573s-64.499-62.303-56.939-135.18s59.269-61.991,120.05-63.503
		c60.781-1.512,122.47-0.021,122.469,78.018C457.487,188.939,457.203,197.598,456.632,205.746z"/>
	<path id="Z950" class="st0" d="M565.993,212.898c0.059,3.755-0.324,7.228-1.054,10.328c-3.454,14.68-25.043,32.239-37.132,34.254
		c-12.09,2.015-41.931,1.681-85.262,4.23s-73.918,17.934-103.566,17.071c-29.648,0.864-60.235-14.522-103.566-17.071
		s-73.173-2.215-85.262-4.23c-12.09-2.015-33.678-19.574-37.132-34.254c-3.454-14.68,0.864-37.708,23.028-59.584
		s67.644-35.117,95.278-46.056s68.263-16.119,108.806-16.119s78.87,5.181,106.504,16.119s73.113,24.179,95.278,46.056
		C559.395,180.898,565.774,198.871,565.993,212.898"/>
	<path id="Z980" class="st0" d="M551,212.126c0,45.485-65.598,34.125-94.045,37.465c-22.02,2.586-53.402,15.084-81.922,20.573
		c-15.628,3.008-23.87,0.182-36.054,0.182c-9.142,0-25.18,3.322-35.221,1.439c-27.764-5.205-56.957-19.27-75.387-22.655
		c-20.647-3.792-101.348,11.503-97.649-40.099c2.841-39.626,45.253-49.436,74.802-62.374
		c29.378-12.863,68.386-26.116,130.146-26.116s88.71,18.571,125.713,30.351C503.263,164.226,551,166.886,551,212.126"/>
	<path id="Z1010" class="st0" d="M532.857,212.603c0,37.137-78.87,13.238-104.438,28.957
		c-29.655,17.277-60.176,27.569-94.595,27.569s-79.641-18.908-96.398-27.74s-87.257,4.706-87.257-33.995
		c0-24.217,41.28-30.673,71.85-40.97s51.699-35.265,113.459-35.265s65.184,19.55,100.735,35.174
		C475.745,178.531,532.857,179.214,532.857,212.603"/>
	<path id="Z1030" class="st0" d="M477.111,206.702c0,19.742-68.355-6.049-74.412,17.319s-22.87,40.887-68.665,40.887
		s-56.642-22.985-68.711-43.304c-12.069-20.319-72.131,0.413-72.131-15.703c0-13.735,38.467-27.265,58.187-35.02
		c20.737-8.156,32.729-30.233,82.655-30.233c52.422,0,58.833,20.631,76.553,31.897C435.225,188.21,477.111,193.406,477.111,206.702"
		/>
	<path id="Z1050" class="st0" d="M335.157,140.768c-29.47,0-67.227,11.637-67.227,57.572s36.679,66.447,67.221,66.447
		s67.221-20.513,67.221-66.447S364.627,140.768,335.157,140.768z"/>
</g>
</svg>
